<?xml version="1.0" encoding="utf-8"?>
<!-- Generator: Adobe Illustrator 24.3.0, SVG Export Plug-In . SVG Version: 6.00 Build 0)  -->
<svg version="1.1" id="katman_1" xmlns="http://www.w3.org/2000/svg" xmlns:xlink="http://www.w3.org/1999/xlink" x="0px" y="0px"
	 viewBox="0 0 3265.2 2408.3" style="enable-background:new 0 0 3265.2 2408.3;" xml:space="preserve">
<style type="text/css">
	.st0{fill:#1A1918;}
	.st1{fill:#FFFFFF;}
</style>
<g>
	<path class="st0" d="M1248.6,2196.3c-3.4,0-7.1-0.9-9.7-4.4l-110.4-145.1v148h-25.2v-182.3c0-7.3,6-13.1,12.9-13.1
		c4,0,7.4,1.2,10,4.6l110.1,144.8v-147.4h25.2v182C1261.5,2191.1,1255.5,2196.3,1248.6,2196.3 M1456.8,2198
		c-25.1,0-51.5-5.2-76-14.5l6-20.9c22.6,7.3,47.2,12.5,70,12.5c31.7,0,48.3-11.3,48.3-27.3c0-14.5-12.9-21.8-57.2-42.7
		c-44.3-20.9-61.7-34.2-61.7-60.4c0-32.8,25.1-46.1,72.6-46.1c19.7,0,50,4.1,67.5,9.3l-4,21.5c-19.2-4.6-43.2-7.8-62.9-7.8
		c-33.4,0-47.2,6.4-47.2,22.3c0,15.7,10,22.3,56.9,44.1c49.5,22.9,62,34.5,62,58.3C1531.1,2180.9,1498.5,2198,1456.8,2198
		 M1650.3,2001.5h26v193.3h-26V2001.5z M1897.6,2107.2H1833v65.6h64.6c22,0,35.4-13.9,35.4-33.4
		C1933.1,2121.1,1919.1,2107.2,1897.6,2107.2 M1885.1,2023.6h-52v61.8h52c20.9,0,36-13.4,36-31.9
		C1921.1,2035.2,1907.9,2023.6,1885.1,2023.6 M1897.9,2194.8h-77.8c-7.2,0.1-13.1-5.6-13.2-12.8c0-0.1,0-0.2,0-0.3v-167.2
		c0-7,5.7-13.1,13.2-13.1h64.3c39.5,0,62.9,19.4,62.9,49.9c0,16.5-9.7,31.9-24.6,40.9c22,6.7,36.9,25,36.9,47
		C1959.7,2170.2,1934.2,2194.8,1897.9,2194.8 M2084.6,2194.8c-7.1,0-12.9-6.1-12.9-13.1v-180.2h26v169.8h103.5v23.5L2084.6,2194.8
		L2084.6,2194.8z M2378.6,2198c-53.2,0-85.2-19.7-85.2-59.5c0-18.9,10.6-36.9,31.2-45.3c-16.6-10.4-25.2-25.3-25.2-41.5
		c0-36,27.7-53.1,79.8-53.1c17.4,0,42,2,62.6,6.7l-2.9,21.5c-21.7-3.5-42-5.5-61.8-5.5c-33.7,0-51.7,9.3-51.7,31.6
		c0,17.7,16.6,31.6,38.6,31.6h44.6c6.3,0,11.2,4.9,11.2,11c0,6.4-4.9,11.3-11.2,11.3h-48c-25.2,0-41.2,12.5-41.2,31.6
		c0,28.2,26,36.6,58.6,36.6c17.7,0,41.7-2.3,61.2-7l3.7,21.2C2424.4,2194.5,2400,2198,2378.6,2198 M909.8,2037.8l45.6,114.2
		l-68.8-55L909.8,2037.8z M990.7,2178.2L920.7,2007c-2-4.9-6-7.6-10.9-7.6c-4.9-0.1-9.4,2.9-11.1,7.6l-76.9,187.8H848l30.5-77.4
		l90.9,74.5c3.7,3,6.3,4.4,9.7,4.4c6.9,0,12.9-5.2,12.9-12.8C992,2182.3,991.5,2180.3,990.7,2178.2L990.7,2178.2z"/>
</g>
<path class="st0" d="M2444.3,1015.6c0,447.2-362.5,809.8-809.8,809.8c-447.2,0-809.8-362.5-809.8-809.8
	c0-447.2,362.6-809.8,809.8-809.8C2081.8,205.9,2444.3,568.4,2444.3,1015.6"/>
<path class="st1" d="M1648.2,700.5l209.5,517.2l-316.5-249.3L1648.2,700.5L1648.2,700.5z M2020.5,1336.9l-322.3-775.7
	c-9.2-22.4-27.6-34.2-49.9-34.2c-22.4,0-42.1,11.8-51.3,34.2L1243.1,1412h121l140-350.8l417.9,337.6c16.8,13.6,28.9,19.7,44.7,19.7
	c31.6,0,59.2-23.7,59.2-57.8C2026,1355.2,2024,1346.4,2020.5,1336.9L2020.5,1336.9z"/>
</svg>
